# xmcd
#
# Track frame offsets:
#	150
#	6735
#	27600
#	55875
#	88420
#	111450
#	137120
#	140525
#	172915
#
# Disc length: 2705 seconds
#
# Revision: 2
# Processed by: cddbd v1.5.1PL2 Copyright (c) Steve Scherf et al.
# Submitted via: EasyCDDAExtractor 8.0.2.1
#
DISCID=880a8f09
DTITLE=Black Sabbath - Municipal Auditorium Nashville 19-11-78 Disc 1
DYEAR=1978
DGENRE=Hard Rock
TTITLE0=Supertzar
TTITLE1=Symptom Of The Universe
TTITLE2=Snowblind
TTITLE3=War  Pigs
TTITLE4=Never Say Die
TTITLE5=Fairies Wear Boots
TTITLE6=Ozzy Thank For 10 Years
TTITLE7=Black Sabbath
TTITLE8=Shock Waves
EXTD=
EXTT0=
EXTT1=
EXTT2=
EXTT3=
EXTT4=
EXTT5=
EXTT6=
EXTT7=
EXTT8=
PLAYORDER=
